<mxfile host="app.diagrams.net" modified="2024-04-18T22:54:12.451Z" agent="Mozilla/5.0 (Windows NT 10.0; Win64; x64) AppleWebKit/537.36 (KHTML, like Gecko) Chrome/123.0.0.0 Safari/537.36 Edg/123.0.0.0" etag="kJECksQaD01qoJr2I-I7" version="24.2.5" type="google">
  <diagram name="Page-1" id="8378b5f6-a2b2-b727-a746-972ab9d02e00">
    <mxGraphModel grid="1" page="1" gridSize="10" guides="1" tooltips="1" connect="0" arrows="1" fold="1" pageScale="1.5" pageWidth="1169" pageHeight="827" background="none" math="0" shadow="0">
      <root>
        <mxCell id="0" />
        <mxCell id="1" parent="0" />
        <mxCell id="4" value="19/02/2024" style="fillColor=#23445D;strokeColor=#FFFFFF;strokeWidth=2;fontColor=#FFFFFF;fontStyle=1" vertex="1" parent="1">
          <mxGeometry x="897.0000000000018" y="300.0000000000001" width="140" height="20" as="geometry" />
        </mxCell>
        <mxCell id="5" value="M" style="fillColor=#23445D;strokeColor=#FFFFFF;strokeWidth=2;fontColor=#FFFFFF;fontStyle=1" vertex="1" parent="1">
          <mxGeometry x="897.0000000000018" y="319.0000000000001" width="20" height="20" as="geometry" />
        </mxCell>
        <mxCell id="6" value="T" style="fillColor=#23445D;strokeColor=#FFFFFF;strokeWidth=2;fontColor=#FFFFFF;fontStyle=1" vertex="1" parent="1">
          <mxGeometry x="917.0000000000018" y="319.0000000000001" width="20" height="20" as="geometry" />
        </mxCell>
        <mxCell id="7" value="W" style="fillColor=#23445D;strokeColor=#FFFFFF;strokeWidth=2;fontColor=#FFFFFF;fontStyle=1" vertex="1" parent="1">
          <mxGeometry x="937.0000000000018" y="320.0000000000001" width="20" height="20" as="geometry" />
        </mxCell>
        <mxCell id="8" value="T" style="fillColor=#23445D;strokeColor=#FFFFFF;strokeWidth=2;fontColor=#FFFFFF;fontStyle=1" vertex="1" parent="1">
          <mxGeometry x="957.0000000000018" y="320.0000000000001" width="20" height="20" as="geometry" />
        </mxCell>
        <mxCell id="9" value="F" style="fillColor=#23445D;strokeColor=#FFFFFF;strokeWidth=2;fontColor=#FFFFFF;fontStyle=1" vertex="1" parent="1">
          <mxGeometry x="977.0000000000016" y="320.0000000000001" width="20" height="20" as="geometry" />
        </mxCell>
        <mxCell id="10" value="S" style="fillColor=#23445D;strokeColor=#FFFFFF;strokeWidth=2;fontColor=#FFFFFF;fontStyle=1" vertex="1" parent="1">
          <mxGeometry x="997.0000000000016" y="320.0000000000001" width="20" height="20" as="geometry" />
        </mxCell>
        <mxCell id="11" value="S" style="fillColor=#23445D;strokeColor=#FFFFFF;strokeWidth=2;fontColor=#FFFFFF;fontStyle=1" vertex="1" parent="1">
          <mxGeometry x="1017.0000000000016" y="320.0000000000001" width="20" height="20" as="geometry" />
        </mxCell>
        <mxCell id="13" value="Start" style="fillColor=#23445D;strokeColor=#FFFFFF;strokeWidth=2;fontColor=#FFFFFF;fontStyle=1;movable=1;resizable=1;rotatable=1;deletable=1;editable=1;locked=0;connectable=1;" vertex="1" parent="1">
          <mxGeometry x="737" y="300" width="80" height="38" as="geometry" />
        </mxCell>
        <mxCell id="15" value="26/02/2024" style="fillColor=#23445D;strokeColor=#FFFFFF;strokeWidth=2;fontColor=#FFFFFF;fontStyle=1" vertex="1" parent="1">
          <mxGeometry x="1037.0000000000018" y="300.0000000000001" width="140" height="20" as="geometry" />
        </mxCell>
        <mxCell id="16" value="M" style="fillColor=#23445D;strokeColor=#FFFFFF;strokeWidth=2;fontColor=#FFFFFF;fontStyle=1" vertex="1" parent="1">
          <mxGeometry x="1037.0000000000018" y="320.0000000000001" width="20" height="20" as="geometry" />
        </mxCell>
        <mxCell id="17" value="T" style="fillColor=#23445D;strokeColor=#FFFFFF;strokeWidth=2;fontColor=#FFFFFF;fontStyle=1" vertex="1" parent="1">
          <mxGeometry x="1057.0000000000018" y="320.0000000000001" width="20" height="20" as="geometry" />
        </mxCell>
        <mxCell id="18" value="W" style="fillColor=#23445D;strokeColor=#FFFFFF;strokeWidth=2;fontColor=#FFFFFF;fontStyle=1" vertex="1" parent="1">
          <mxGeometry x="1077.0000000000018" y="320.0000000000001" width="20" height="20" as="geometry" />
        </mxCell>
        <mxCell id="19" value="T" style="fillColor=#23445D;strokeColor=#FFFFFF;strokeWidth=2;fontColor=#FFFFFF;fontStyle=1" vertex="1" parent="1">
          <mxGeometry x="1097.0000000000018" y="320.0000000000001" width="20" height="20" as="geometry" />
        </mxCell>
        <mxCell id="20" value="F" style="fillColor=#23445D;strokeColor=#FFFFFF;strokeWidth=2;fontColor=#FFFFFF;fontStyle=1" vertex="1" parent="1">
          <mxGeometry x="1117.0000000000016" y="320.0000000000001" width="20" height="20" as="geometry" />
        </mxCell>
        <mxCell id="21" value="S" style="fillColor=#23445D;strokeColor=#FFFFFF;strokeWidth=2;fontColor=#FFFFFF;fontStyle=1" vertex="1" parent="1">
          <mxGeometry x="1137.0000000000016" y="320.0000000000001" width="20" height="20" as="geometry" />
        </mxCell>
        <mxCell id="22" value="S" style="fillColor=#23445D;strokeColor=#FFFFFF;strokeWidth=2;fontColor=#FFFFFF;fontStyle=1" vertex="1" parent="1">
          <mxGeometry x="1157.0000000000016" y="320.0000000000001" width="20" height="20" as="geometry" />
        </mxCell>
        <mxCell id="23" value="04/03/2024" style="fillColor=#23445D;strokeColor=#FFFFFF;strokeWidth=2;fontColor=#FFFFFF;fontStyle=1" vertex="1" parent="1">
          <mxGeometry x="1177.0000000000018" y="300.00000000000006" width="140" height="20" as="geometry" />
        </mxCell>
        <mxCell id="24" value="M" style="fillColor=#23445D;strokeColor=#FFFFFF;strokeWidth=2;fontColor=#FFFFFF;fontStyle=1" vertex="1" parent="1">
          <mxGeometry x="1177.0000000000018" y="320.00000000000006" width="20" height="20" as="geometry" />
        </mxCell>
        <mxCell id="25" value="T" style="fillColor=#23445D;strokeColor=#FFFFFF;strokeWidth=2;fontColor=#FFFFFF;fontStyle=1" vertex="1" parent="1">
          <mxGeometry x="1197.0000000000018" y="320.00000000000006" width="20" height="20" as="geometry" />
        </mxCell>
        <mxCell id="26" value="W" style="fillColor=#23445D;strokeColor=#FFFFFF;strokeWidth=2;fontColor=#FFFFFF;fontStyle=1" vertex="1" parent="1">
          <mxGeometry x="1217.0000000000018" y="320.00000000000006" width="20" height="20" as="geometry" />
        </mxCell>
        <mxCell id="27" value="T" style="fillColor=#23445D;strokeColor=#FFFFFF;strokeWidth=2;fontColor=#FFFFFF;fontStyle=1" vertex="1" parent="1">
          <mxGeometry x="1237.0000000000018" y="320.00000000000006" width="20" height="20" as="geometry" />
        </mxCell>
        <mxCell id="28" value="F" style="fillColor=#23445D;strokeColor=#FFFFFF;strokeWidth=2;fontColor=#FFFFFF;fontStyle=1" vertex="1" parent="1">
          <mxGeometry x="1257.0000000000016" y="320.00000000000006" width="20" height="20" as="geometry" />
        </mxCell>
        <mxCell id="29" value="S" style="fillColor=#23445D;strokeColor=#FFFFFF;strokeWidth=2;fontColor=#FFFFFF;fontStyle=1" vertex="1" parent="1">
          <mxGeometry x="1277.0000000000016" y="320.00000000000006" width="20" height="20" as="geometry" />
        </mxCell>
        <mxCell id="30" value="S" style="fillColor=#23445D;strokeColor=#FFFFFF;strokeWidth=2;fontColor=#FFFFFF;fontStyle=1" vertex="1" parent="1">
          <mxGeometry x="1297.0000000000016" y="320.00000000000006" width="20" height="20" as="geometry" />
        </mxCell>
        <mxCell id="31" value="11/03/2024" style="fillColor=#23445D;strokeColor=#FFFFFF;strokeWidth=2;fontColor=#FFFFFF;fontStyle=1" vertex="1" parent="1">
          <mxGeometry x="1317.0000000000018" y="300.00000000000006" width="140" height="20" as="geometry" />
        </mxCell>
        <mxCell id="32" value="M" style="fillColor=#23445D;strokeColor=#FFFFFF;strokeWidth=2;fontColor=#FFFFFF;fontStyle=1" vertex="1" parent="1">
          <mxGeometry x="1317.0000000000018" y="320.00000000000006" width="20" height="20" as="geometry" />
        </mxCell>
        <mxCell id="33" value="T" style="fillColor=#23445D;strokeColor=#FFFFFF;strokeWidth=2;fontColor=#FFFFFF;fontStyle=1" vertex="1" parent="1">
          <mxGeometry x="1337.0000000000018" y="320.00000000000006" width="20" height="20" as="geometry" />
        </mxCell>
        <mxCell id="34" value="W" style="fillColor=#23445D;strokeColor=#FFFFFF;strokeWidth=2;fontColor=#FFFFFF;fontStyle=1" vertex="1" parent="1">
          <mxGeometry x="1357.0000000000018" y="320.00000000000006" width="20" height="20" as="geometry" />
        </mxCell>
        <mxCell id="35" value="T" style="fillColor=#23445D;strokeColor=#FFFFFF;strokeWidth=2;fontColor=#FFFFFF;fontStyle=1" vertex="1" parent="1">
          <mxGeometry x="1377.0000000000018" y="320.00000000000006" width="20" height="20" as="geometry" />
        </mxCell>
        <mxCell id="36" value="F" style="fillColor=#23445D;strokeColor=#FFFFFF;strokeWidth=2;fontColor=#FFFFFF;fontStyle=1" vertex="1" parent="1">
          <mxGeometry x="1397.0000000000016" y="320" width="20" height="20" as="geometry" />
        </mxCell>
        <mxCell id="37" value="S" style="fillColor=#23445D;strokeColor=#FFFFFF;strokeWidth=2;fontColor=#FFFFFF;fontStyle=1" vertex="1" parent="1">
          <mxGeometry x="1417.0000000000016" y="320" width="20" height="20" as="geometry" />
        </mxCell>
        <mxCell id="38" value="S" style="fillColor=#23445D;strokeColor=#FFFFFF;strokeWidth=2;fontColor=#FFFFFF;fontStyle=1" vertex="1" parent="1">
          <mxGeometry x="1437.0000000000016" y="320" width="20" height="20" as="geometry" />
        </mxCell>
        <mxCell id="39" value="18/03/2024" style="fillColor=#23445D;strokeColor=#FFFFFF;strokeWidth=2;fontColor=#FFFFFF;fontStyle=1" vertex="1" parent="1">
          <mxGeometry x="1457.0000000000018" y="300.00000000000006" width="140" height="20" as="geometry" />
        </mxCell>
        <mxCell id="40" value="M" style="fillColor=#23445D;strokeColor=#FFFFFF;strokeWidth=2;fontColor=#FFFFFF;fontStyle=1" vertex="1" parent="1">
          <mxGeometry x="1457.0000000000018" y="320.00000000000006" width="20" height="20" as="geometry" />
        </mxCell>
        <mxCell id="41" value="T" style="fillColor=#23445D;strokeColor=#FFFFFF;strokeWidth=2;fontColor=#FFFFFF;fontStyle=1" vertex="1" parent="1">
          <mxGeometry x="1477.0000000000018" y="320.00000000000006" width="20" height="20" as="geometry" />
        </mxCell>
        <mxCell id="42" value="W" style="fillColor=#23445D;strokeColor=#FFFFFF;strokeWidth=2;fontColor=#FFFFFF;fontStyle=1" vertex="1" parent="1">
          <mxGeometry x="1497.0000000000018" y="320.00000000000006" width="20" height="20" as="geometry" />
        </mxCell>
        <mxCell id="43" value="T" style="fillColor=#23445D;strokeColor=#FFFFFF;strokeWidth=2;fontColor=#FFFFFF;fontStyle=1" vertex="1" parent="1">
          <mxGeometry x="1517.0000000000018" y="320.00000000000006" width="20" height="20" as="geometry" />
        </mxCell>
        <mxCell id="44" value="F" style="fillColor=#23445D;strokeColor=#FFFFFF;strokeWidth=2;fontColor=#FFFFFF;fontStyle=1" vertex="1" parent="1">
          <mxGeometry x="1537.0000000000016" y="320" width="20" height="20" as="geometry" />
        </mxCell>
        <mxCell id="45" value="S" style="fillColor=#23445D;strokeColor=#FFFFFF;strokeWidth=2;fontColor=#FFFFFF;fontStyle=1" vertex="1" parent="1">
          <mxGeometry x="1557.0000000000018" y="320" width="20" height="20" as="geometry" />
        </mxCell>
        <mxCell id="46" value="S" style="fillColor=#23445D;strokeColor=#FFFFFF;strokeWidth=2;fontColor=#FFFFFF;fontStyle=1" vertex="1" parent="1">
          <mxGeometry x="1577.0000000000018" y="320" width="20" height="20" as="geometry" />
        </mxCell>
        <mxCell id="47" value="25/03/2024" style="fillColor=#23445D;strokeColor=#FFFFFF;strokeWidth=2;fontColor=#FFFFFF;fontStyle=1" vertex="1" parent="1">
          <mxGeometry x="1597.0000000000018" y="300" width="140" height="20" as="geometry" />
        </mxCell>
        <mxCell id="48" value="M" style="fillColor=#23445D;strokeColor=#FFFFFF;strokeWidth=2;fontColor=#FFFFFF;fontStyle=1" vertex="1" parent="1">
          <mxGeometry x="1597.0000000000018" y="320" width="20" height="20" as="geometry" />
        </mxCell>
        <mxCell id="49" value="T" style="fillColor=#23445D;strokeColor=#FFFFFF;strokeWidth=2;fontColor=#FFFFFF;fontStyle=1" vertex="1" parent="1">
          <mxGeometry x="1617.0000000000018" y="320" width="20" height="20" as="geometry" />
        </mxCell>
        <mxCell id="50" value="W" style="fillColor=#23445D;strokeColor=#FFFFFF;strokeWidth=2;fontColor=#FFFFFF;fontStyle=1" vertex="1" parent="1">
          <mxGeometry x="1637.0000000000018" y="320" width="20" height="20" as="geometry" />
        </mxCell>
        <mxCell id="51" value="T" style="fillColor=#23445D;strokeColor=#FFFFFF;strokeWidth=2;fontColor=#FFFFFF;fontStyle=1" vertex="1" parent="1">
          <mxGeometry x="1657.0000000000018" y="320" width="20" height="20" as="geometry" />
        </mxCell>
        <mxCell id="52" value="F" style="fillColor=#23445D;strokeColor=#FFFFFF;strokeWidth=2;fontColor=#FFFFFF;fontStyle=1" vertex="1" parent="1">
          <mxGeometry x="1677.0000000000018" y="320" width="20" height="20" as="geometry" />
        </mxCell>
        <mxCell id="53" value="S" style="fillColor=#23445D;strokeColor=#FFFFFF;strokeWidth=2;fontColor=#FFFFFF;fontStyle=1" vertex="1" parent="1">
          <mxGeometry x="1697.0000000000018" y="320" width="20" height="20" as="geometry" />
        </mxCell>
        <mxCell id="54" value="S" style="fillColor=#23445D;strokeColor=#FFFFFF;strokeWidth=2;fontColor=#FFFFFF;fontStyle=1" vertex="1" parent="1">
          <mxGeometry x="1717.0000000000018" y="320" width="20" height="20" as="geometry" />
        </mxCell>
        <mxCell id="243" value="" style="shape=mxgraph.arrows.bent_right_arrow;fillColor=#AE4132;strokeColor=none;strokeWidth=2;direction=south" vertex="1" parent="1">
          <mxGeometry x="917.000000000002" y="389.99999999999966" width="10.000000000000341" height="9.99999999999983" as="geometry" />
        </mxCell>
        <mxCell id="244" value="" style="shape=mxgraph.flowchart.process;fillColor=#AE4132;strokeColor=none;strokeWidth=2;opacity=50" vertex="1" parent="1">
          <mxGeometry x="897.0000000000032" y="379.9999999999998" width="19.999999999998863" height="19.99999999999983" as="geometry" />
        </mxCell>
        <mxCell id="245" value="" style="shape=mxgraph.flowchart.process;fillColor=#AE4132;strokeColor=none;strokeWidth=2;opacity=50" vertex="1" parent="1">
          <mxGeometry x="917.0000000000018" y="400.00000000000057" width="40.00000000000023" height="19.99999999999983" as="geometry" />
        </mxCell>
        <mxCell id="246" value="" style="shape=mxgraph.flowchart.process;fillColor=#AE4132;strokeColor=none;strokeWidth=2;opacity=50" vertex="1" parent="1">
          <mxGeometry x="957.0000000000018" y="420.0000000000009" width="19.999999999998863" height="19.99999999999983" as="geometry" />
        </mxCell>
        <mxCell id="249" value="" style="shape=mxgraph.arrows.bent_right_arrow;fillColor=#AE4132;strokeColor=none;strokeWidth=2;direction=south" vertex="1" parent="1">
          <mxGeometry x="957.0000000000009" y="409.99999999999943" width="10.000000000000341" height="9.99999999999983" as="geometry" />
        </mxCell>
        <mxCell id="250" value="" style="shape=mxgraph.arrows.bent_right_arrow;fillColor=#AE4132;strokeColor=none;strokeWidth=2;direction=south" vertex="1" parent="1">
          <mxGeometry x="977.0000000000007" y="430.0000000000001" width="10.000000000000341" height="9.99999999999983" as="geometry" />
        </mxCell>
        <mxCell id="252" value="" style="shape=mxgraph.flowchart.process;fillColor=#AE4132;strokeColor=none;strokeWidth=2;opacity=50" vertex="1" parent="1">
          <mxGeometry x="977.0000000000018" y="439.9999999999999" width="100.00000000000011" height="19.99999999999983" as="geometry" />
        </mxCell>
        <mxCell id="253" value="" style="shape=mxgraph.arrows.bent_right_arrow;fillColor=#AE4132;strokeColor=none;strokeWidth=2;direction=south" vertex="1" parent="1">
          <mxGeometry x="1077.000000000002" y="449.9999999999998" width="10.000000000000341" height="9.99999999999983" as="geometry" />
        </mxCell>
        <mxCell id="255" value="" style="shape=mxgraph.flowchart.process;fillColor=#AE4132;strokeColor=none;strokeWidth=2;opacity=50" vertex="1" parent="1">
          <mxGeometry x="1057" y="520.0000000000016" width="40" height="19.99999999999983" as="geometry" />
        </mxCell>
        <mxCell id="256" value="" style="shape=mxgraph.flowchart.process;fillColor=#AE4132;strokeColor=#000000;strokeWidth=2;opacity=50" vertex="1" parent="1">
          <mxGeometry x="1057" y="500.00000000000057" width="560" height="19.9999999999998" as="geometry" />
        </mxCell>
        <mxCell id="257" value="" style="shape=mxgraph.flowchart.process;fillColor=#AE4132;strokeColor=none;strokeWidth=2;opacity=50" vertex="1" parent="1">
          <mxGeometry x="1097" y="540.0000000000019" width="80.00000000000011" height="19.99999999999983" as="geometry" />
        </mxCell>
        <mxCell id="258" value="" style="shape=mxgraph.flowchart.process;fillColor=#AE4132;strokeColor=none;strokeWidth=2;opacity=50" vertex="1" parent="1">
          <mxGeometry x="1177" y="560.0000000000011" width="60.000000000000114" height="19.99999999999983" as="geometry" />
        </mxCell>
        <mxCell id="269" value="" style="shape=mxgraph.arrows.bent_right_arrow;fillColor=#AE4132;strokeColor=none;strokeWidth=2;direction=south" vertex="1" parent="1">
          <mxGeometry x="1097.0000000000023" y="530.000000000002" width="10.000000000000341" height="9.99999999999983" as="geometry" />
        </mxCell>
        <mxCell id="270" value="" style="shape=mxgraph.arrows.bent_right_arrow;fillColor=#AE4132;strokeColor=none;strokeWidth=2;direction=south" vertex="1" parent="1">
          <mxGeometry x="1176.9999999999998" y="550.0000000000019" width="10.000000000000341" height="9.99999999999983" as="geometry" />
        </mxCell>
        <mxCell id="271" value="" style="shape=mxgraph.arrows.bent_right_arrow;fillColor=#AE4132;strokeColor=none;strokeWidth=2;direction=south" vertex="1" parent="1">
          <mxGeometry x="1237" y="570.0000000000019" width="10.000000000000341" height="9.99999999999983" as="geometry" />
        </mxCell>
        <mxCell id="jcqfJlNn9UvSAwRt45BT-354" value="Catagory" style="fillColor=#23445D;strokeColor=#FFFFFF;strokeWidth=2;fontColor=#FFFFFF;fontStyle=1;movable=1;resizable=1;rotatable=1;deletable=1;editable=1;locked=0;connectable=1;" vertex="1" parent="1">
          <mxGeometry x="377" y="300" width="120" height="38" as="geometry" />
        </mxCell>
        <mxCell id="jcqfJlNn9UvSAwRt45BT-355" value="Assigned to" style="fillColor=#23445D;strokeColor=#FFFFFF;strokeWidth=2;fontColor=#FFFFFF;fontStyle=1;movable=1;resizable=1;rotatable=1;deletable=1;editable=1;locked=0;connectable=1;" vertex="1" parent="1">
          <mxGeometry x="497" y="300" width="120" height="38" as="geometry" />
        </mxCell>
        <mxCell id="jcqfJlNn9UvSAwRt45BT-356" value="Progress" style="fillColor=#23445D;strokeColor=#FFFFFF;strokeWidth=2;fontColor=#FFFFFF;fontStyle=1;movable=1;resizable=1;rotatable=1;deletable=1;editable=1;locked=0;connectable=1;" vertex="1" parent="1">
          <mxGeometry x="617" y="300" width="120" height="38" as="geometry" />
        </mxCell>
        <mxCell id="jcqfJlNn9UvSAwRt45BT-357" value="100%" style="strokeColor=#82b366;fillColor=#d5e8d4;movable=1;resizable=1;rotatable=1;deletable=1;editable=1;locked=0;connectable=1;" vertex="1" parent="1">
          <mxGeometry x="617.0000000000007" y="339" width="119.99999999999736" height="19.999999999999865" as="geometry" />
        </mxCell>
        <mxCell id="jcqfJlNn9UvSAwRt45BT-358" value="100%" style="movable=1;resizable=1;rotatable=1;deletable=1;editable=1;locked=0;connectable=1;strokeColor=#82b366;fillColor=#d5e8d4;" vertex="1" parent="1">
          <mxGeometry x="617.0000000000007" y="359.9999999999998" width="119.99999999999736" height="19.999999999999865" as="geometry" />
        </mxCell>
        <mxCell id="jcqfJlNn9UvSAwRt45BT-359" value="100%" style="strokeColor=#82b366;movable=1;resizable=1;rotatable=1;deletable=1;editable=1;locked=0;connectable=1;fillColor=#d5e8d4;" vertex="1" parent="1">
          <mxGeometry x="617.0000000000007" y="379.99999999999943" width="119.99999999999736" height="19.999999999999865" as="geometry" />
        </mxCell>
        <mxCell id="jcqfJlNn9UvSAwRt45BT-360" value="100%" style="strokeColor=#82b366;movable=1;resizable=1;rotatable=1;deletable=1;editable=1;locked=0;connectable=1;fillColor=#d5e8d4;" vertex="1" parent="1">
          <mxGeometry x="617.0000000000007" y="399.9999999999998" width="119.99999999999736" height="19.999999999999865" as="geometry" />
        </mxCell>
        <mxCell id="jcqfJlNn9UvSAwRt45BT-361" value="100%" style="strokeColor=#82b366;movable=1;resizable=1;rotatable=1;deletable=1;editable=1;locked=0;connectable=1;fillColor=#d5e8d4;" vertex="1" parent="1">
          <mxGeometry x="617.0000000000007" y="419.99999999999955" width="119.99999999999736" height="19.999999999999865" as="geometry" />
        </mxCell>
        <mxCell id="jcqfJlNn9UvSAwRt45BT-362" value="100%" style="strokeColor=#82b366;movable=1;resizable=1;rotatable=1;deletable=1;editable=1;locked=0;connectable=1;fillColor=#d5e8d4;" vertex="1" parent="1">
          <mxGeometry x="617.0000000000007" y="440.99999999999966" width="119.99999999999736" height="19.999999999999865" as="geometry" />
        </mxCell>
        <mxCell id="jcqfJlNn9UvSAwRt45BT-363" value="" style="movable=1;resizable=1;rotatable=1;deletable=1;editable=1;locked=0;connectable=1;strokeColor=#ddedff;" vertex="1" parent="1">
          <mxGeometry x="617.0000000000014" y="459.9999999999999" width="119.99999999999736" height="19.999999999999865" as="geometry" />
        </mxCell>
        <mxCell id="jcqfJlNn9UvSAwRt45BT-364" value="35%" style="strokeColor=#d6b656;movable=1;resizable=1;rotatable=1;deletable=1;editable=1;locked=0;connectable=1;fillColor=#fff2cc;" vertex="1" parent="1">
          <mxGeometry x="617.0000000000014" y="479.99999999999966" width="119.99999999999736" height="19.999999999999865" as="geometry" />
        </mxCell>
        <mxCell id="jcqfJlNn9UvSAwRt45BT-365" value="90%" style="movable=1;resizable=1;rotatable=1;deletable=1;editable=1;locked=0;connectable=1;strokeColor=#d6b656;fillColor=#fff2cc;" vertex="1" parent="1">
          <mxGeometry x="617.0000000000007" y="499.9999999999998" width="119.99999999999736" height="19.999999999999865" as="geometry" />
        </mxCell>
        <mxCell id="jcqfJlNn9UvSAwRt45BT-366" value="65%" style="strokeColor=#d6b656;movable=1;resizable=1;rotatable=1;deletable=1;editable=1;locked=0;connectable=1;fillColor=#fff2cc;" vertex="1" parent="1">
          <mxGeometry x="617.0000000000007" y="519.9999999999997" width="119.99999999999736" height="19.999999999999865" as="geometry" />
        </mxCell>
        <mxCell id="jcqfJlNn9UvSAwRt45BT-367" value="0%" style="strokeColor=#b85450;movable=1;resizable=1;rotatable=1;deletable=1;editable=1;locked=0;connectable=1;fillColor=#f8cecc;" vertex="1" parent="1">
          <mxGeometry x="617.0000000000007" y="539.9999999999998" width="119.99999999999736" height="19.999999999999865" as="geometry" />
        </mxCell>
        <mxCell id="jcqfJlNn9UvSAwRt45BT-368" value="0%" style="strokeColor=#b85450;movable=1;resizable=1;rotatable=1;deletable=1;editable=1;locked=0;connectable=1;fillColor=#f8cecc;" vertex="1" parent="1">
          <mxGeometry x="617.0000000000007" y="560" width="119.99999999999736" height="19.999999999999865" as="geometry" />
        </mxCell>
        <mxCell id="yenL0R5jrLWhSOvmW5b8-283" value="Group" style="strokeColor=#10739e;fillColor=#b1ddf0;movable=1;resizable=1;rotatable=1;deletable=1;editable=1;locked=0;connectable=1;" vertex="1" parent="1">
          <mxGeometry x="497.0000000000007" y="339" width="119.99999999999736" height="19.999999999999865" as="geometry" />
        </mxCell>
        <mxCell id="yenL0R5jrLWhSOvmW5b8-284" value="Group" style="movable=1;resizable=1;rotatable=1;deletable=1;editable=1;locked=0;connectable=1;strokeColor=#e9f3ff;" vertex="1" parent="1">
          <mxGeometry x="497.0000000000007" y="359.9999999999998" width="119.99999999999736" height="19.999999999999865" as="geometry" />
        </mxCell>
        <mxCell id="yenL0R5jrLWhSOvmW5b8-285" value="Group" style="strokeColor=#DEEDFF;movable=1;resizable=1;rotatable=1;deletable=1;editable=1;locked=0;connectable=1;" vertex="1" parent="1">
          <mxGeometry x="497.0000000000007" y="379.99999999999943" width="119.99999999999736" height="19.999999999999865" as="geometry" />
        </mxCell>
        <mxCell id="yenL0R5jrLWhSOvmW5b8-286" value="Development team" style="strokeColor=#DEEDFF;movable=1;resizable=1;rotatable=1;deletable=1;editable=1;locked=0;connectable=1;" vertex="1" parent="1">
          <mxGeometry x="497.0000000000007" y="399.9999999999998" width="119.99999999999736" height="19.999999999999865" as="geometry" />
        </mxCell>
        <mxCell id="yenL0R5jrLWhSOvmW5b8-287" value="Review team" style="strokeColor=#DEEDFF;movable=1;resizable=1;rotatable=1;deletable=1;editable=1;locked=0;connectable=1;" vertex="1" parent="1">
          <mxGeometry x="497.0000000000007" y="419.99999999999955" width="119.99999999999736" height="19.999999999999865" as="geometry" />
        </mxCell>
        <mxCell id="yenL0R5jrLWhSOvmW5b8-288" value="Group" style="strokeColor=#DEEDFF;movable=1;resizable=1;rotatable=1;deletable=1;editable=1;locked=0;connectable=1;" vertex="1" parent="1">
          <mxGeometry x="497.0000000000007" y="440.99999999999966" width="119.99999999999736" height="19.999999999999865" as="geometry" />
        </mxCell>
        <mxCell id="yenL0R5jrLWhSOvmW5b8-289" value="" style="movable=1;resizable=1;rotatable=1;deletable=1;editable=1;locked=0;connectable=1;strokeColor=#ddedff;" vertex="1" parent="1">
          <mxGeometry x="497.00000000000136" y="459.9999999999999" width="119.99999999999736" height="19.999999999999865" as="geometry" />
        </mxCell>
        <mxCell id="yenL0R5jrLWhSOvmW5b8-290" value="Group" style="strokeColor=#10739e;movable=1;resizable=1;rotatable=1;deletable=1;editable=1;locked=0;connectable=1;fillColor=#b1ddf0;" vertex="1" parent="1">
          <mxGeometry x="497.00000000000136" y="479.99999999999966" width="119.99999999999736" height="19.999999999999865" as="geometry" />
        </mxCell>
        <mxCell id="yenL0R5jrLWhSOvmW5b8-291" value="Group" style="movable=1;resizable=1;rotatable=1;deletable=1;editable=1;locked=0;connectable=1;strokeColor=#e9f3ff;" vertex="1" parent="1">
          <mxGeometry x="497.0000000000007" y="499.9999999999998" width="119.99999999999736" height="19.999999999999865" as="geometry" />
        </mxCell>
        <mxCell id="yenL0R5jrLWhSOvmW5b8-292" value="Group" style="strokeColor=#DEEDFF;movable=1;resizable=1;rotatable=1;deletable=1;editable=1;locked=0;connectable=1;" vertex="1" parent="1">
          <mxGeometry x="497.0000000000007" y="519.9999999999997" width="119.99999999999736" height="19.999999999999865" as="geometry" />
        </mxCell>
        <mxCell id="yenL0R5jrLWhSOvmW5b8-293" value="Camden" style="strokeColor=#DEEDFF;movable=1;resizable=1;rotatable=1;deletable=1;editable=1;locked=0;connectable=1;" vertex="1" parent="1">
          <mxGeometry x="497.0000000000007" y="539.9999999999998" width="119.99999999999736" height="19.999999999999865" as="geometry" />
        </mxCell>
        <mxCell id="yenL0R5jrLWhSOvmW5b8-294" value="Group" style="strokeColor=#DEEDFF;movable=1;resizable=1;rotatable=1;deletable=1;editable=1;locked=0;connectable=1;" vertex="1" parent="1">
          <mxGeometry x="497.0000000000007" y="560" width="119.99999999999736" height="19.999999999999865" as="geometry" />
        </mxCell>
        <mxCell id="yenL0R5jrLWhSOvmW5b8-310" value="Milestone" style="strokeColor=#432D57;fillColor=#76608a;movable=1;resizable=1;rotatable=1;deletable=1;editable=1;locked=0;connectable=1;fontColor=#ffffff;" vertex="1" parent="1">
          <mxGeometry x="377.0000000000007" y="339" width="119.99999999999736" height="19.999999999999865" as="geometry" />
        </mxCell>
        <mxCell id="yenL0R5jrLWhSOvmW5b8-311" value="High priority" style="movable=1;resizable=1;rotatable=1;deletable=1;editable=1;locked=0;connectable=1;strokeColor=#B20000;fillColor=#e51400;fontColor=#ffffff;" vertex="1" parent="1">
          <mxGeometry x="377.0000000000007" y="359.9999999999998" width="119.99999999999736" height="19.999999999999865" as="geometry" />
        </mxCell>
        <mxCell id="yenL0R5jrLWhSOvmW5b8-312" value="Medium priority" style="strokeColor=#BD7000;movable=1;resizable=1;rotatable=1;deletable=1;editable=1;locked=0;connectable=1;fillColor=#f0a30a;fontColor=#000000;" vertex="1" parent="1">
          <mxGeometry x="377.0000000000007" y="379.99999999999943" width="119.99999999999736" height="19.999999999999865" as="geometry" />
        </mxCell>
        <mxCell id="yenL0R5jrLWhSOvmW5b8-313" value="Goal" style="strokeColor=#B09500;movable=1;resizable=1;rotatable=1;deletable=1;editable=1;locked=0;connectable=1;fillColor=#e3c800;fontColor=#000000;" vertex="1" parent="1">
          <mxGeometry x="377.0000000000007" y="399.9999999999998" width="119.99999999999736" height="19.999999999999865" as="geometry" />
        </mxCell>
        <mxCell id="yenL0R5jrLWhSOvmW5b8-314" value="Medium priority" style="strokeColor=#BD7000;movable=1;resizable=1;rotatable=1;deletable=1;editable=1;locked=0;connectable=1;fillColor=#f0a30a;fontColor=#000000;" vertex="1" parent="1">
          <mxGeometry x="377.0000000000007" y="419.99999999999955" width="119.99999999999736" height="19.999999999999865" as="geometry" />
        </mxCell>
        <mxCell id="yenL0R5jrLWhSOvmW5b8-315" value="High priority" style="strokeColor=#B20000;movable=1;resizable=1;rotatable=1;deletable=1;editable=1;locked=0;connectable=1;fillColor=#e51400;fontColor=#ffffff;" vertex="1" parent="1">
          <mxGeometry x="377.0000000000007" y="440.99999999999966" width="119.99999999999736" height="19.999999999999865" as="geometry" />
        </mxCell>
        <mxCell id="yenL0R5jrLWhSOvmW5b8-316" value="" style="movable=1;resizable=1;rotatable=1;deletable=1;editable=1;locked=0;connectable=1;strokeColor=#ddedff;" vertex="1" parent="1">
          <mxGeometry x="377.00000000000136" y="459.9999999999999" width="119.99999999999736" height="19.999999999999865" as="geometry" />
        </mxCell>
        <mxCell id="yenL0R5jrLWhSOvmW5b8-317" value="Milestone" style="strokeColor=#432D57;movable=1;resizable=1;rotatable=1;deletable=1;editable=1;locked=0;connectable=1;fillColor=#76608a;fontColor=#ffffff;" vertex="1" parent="1">
          <mxGeometry x="377.00000000000136" y="479.99999999999966" width="119.99999999999736" height="19.999999999999865" as="geometry" />
        </mxCell>
        <mxCell id="yenL0R5jrLWhSOvmW5b8-318" value="High priority" style="movable=1;resizable=1;rotatable=1;deletable=1;editable=1;locked=0;connectable=1;strokeColor=#B20000;fillColor=#e51400;fontColor=#ffffff;" vertex="1" parent="1">
          <mxGeometry x="377.0000000000007" y="499.9999999999998" width="119.99999999999736" height="19.999999999999865" as="geometry" />
        </mxCell>
        <mxCell id="yenL0R5jrLWhSOvmW5b8-319" value="Low priority" style="strokeColor=#314354;movable=1;resizable=1;rotatable=1;deletable=1;editable=1;locked=0;connectable=1;fillColor=#647687;fontColor=#ffffff;" vertex="1" parent="1">
          <mxGeometry x="377.0000000000007" y="519.9999999999997" width="119.99999999999736" height="19.999999999999865" as="geometry" />
        </mxCell>
        <mxCell id="yenL0R5jrLWhSOvmW5b8-320" value="Goal" style="strokeColor=#B09500;movable=1;resizable=1;rotatable=1;deletable=1;editable=1;locked=0;connectable=1;fillColor=#e3c800;fontColor=#000000;" vertex="1" parent="1">
          <mxGeometry x="377.0000000000007" y="539.9999999999998" width="119.99999999999736" height="19.999999999999865" as="geometry" />
        </mxCell>
        <mxCell id="yenL0R5jrLWhSOvmW5b8-321" value="High priority" style="strokeColor=#B20000;movable=1;resizable=1;rotatable=1;deletable=1;editable=1;locked=0;connectable=1;fillColor=#e51400;fontColor=#ffffff;" vertex="1" parent="1">
          <mxGeometry x="377.0000000000007" y="560" width="119.99999999999736" height="19.999999999999865" as="geometry" />
        </mxCell>
        <mxCell id="65" value="14 days" style="strokeColor=#10739e;fillColor=#b1ddf0;movable=1;resizable=1;rotatable=1;deletable=1;editable=1;locked=0;connectable=1;" vertex="1" parent="1">
          <mxGeometry x="817.0000000000018" y="339" width="80.00000000000028" height="20" as="geometry" />
        </mxCell>
        <mxCell id="71" value="3 days" style="movable=1;resizable=1;rotatable=1;deletable=1;editable=1;locked=0;connectable=1;strokeColor=#e9f3ff;" vertex="1" parent="1">
          <mxGeometry x="817.0000000000018" y="359.9999999999998" width="80.00000000000028" height="20" as="geometry" />
        </mxCell>
        <mxCell id="76" value="1 day" style="strokeColor=#DEEDFF;movable=1;resizable=1;rotatable=1;deletable=1;editable=1;locked=0;connectable=1;" vertex="1" parent="1">
          <mxGeometry x="817.0000000000018" y="379.9999999999998" width="80.00000000000028" height="20" as="geometry" />
        </mxCell>
        <mxCell id="81" value="3 days" style="strokeColor=#DEEDFF;movable=1;resizable=1;rotatable=1;deletable=1;editable=1;locked=0;connectable=1;" vertex="1" parent="1">
          <mxGeometry x="817.0000000000018" y="400.0000000000001" width="80.00000000000028" height="20" as="geometry" />
        </mxCell>
        <mxCell id="86" value="1 day" style="strokeColor=#DEEDFF;movable=1;resizable=1;rotatable=1;deletable=1;editable=1;locked=0;connectable=1;" vertex="1" parent="1">
          <mxGeometry x="817.0000000000018" y="420.0000000000001" width="80.00000000000028" height="20" as="geometry" />
        </mxCell>
        <mxCell id="91" value="2 days" style="strokeColor=#DEEDFF;movable=1;resizable=1;rotatable=1;deletable=1;editable=1;locked=0;connectable=1;" vertex="1" parent="1">
          <mxGeometry x="817.0000000000018" y="441.00000000000034" width="80.00000000000028" height="20" as="geometry" />
        </mxCell>
        <mxCell id="96" value="" style="movable=1;resizable=1;rotatable=1;deletable=1;editable=1;locked=0;connectable=1;strokeColor=#ddedff;" vertex="1" parent="1">
          <mxGeometry x="817.0000000000023" y="460.0000000000007" width="80.00000000000028" height="20" as="geometry" />
        </mxCell>
        <mxCell id="101" value="1 day" style="strokeColor=#10739e;movable=1;resizable=1;rotatable=1;deletable=1;editable=1;locked=0;connectable=1;fillColor=#b1ddf0;" vertex="1" parent="1">
          <mxGeometry x="817.0000000000023" y="480.00000000000057" width="80.00000000000028" height="20" as="geometry" />
        </mxCell>
        <mxCell id="106" value="3 days" style="movable=1;resizable=1;rotatable=1;deletable=1;editable=1;locked=0;connectable=1;strokeColor=#e9f3ff;" vertex="1" parent="1">
          <mxGeometry x="817.0000000000018" y="500.0000000000009" width="80.00000000000028" height="20" as="geometry" />
        </mxCell>
        <mxCell id="111" value="3 days" style="strokeColor=#DEEDFF;movable=1;resizable=1;rotatable=1;deletable=1;editable=1;locked=0;connectable=1;" vertex="1" parent="1">
          <mxGeometry x="817.0000000000018" y="520.0000000000009" width="80.00000000000028" height="20" as="geometry" />
        </mxCell>
        <mxCell id="116" value="1 day" style="strokeColor=#DEEDFF;movable=1;resizable=1;rotatable=1;deletable=1;editable=1;locked=0;connectable=1;" vertex="1" parent="1">
          <mxGeometry x="817.0000000000018" y="540.0000000000011" width="80.00000000000028" height="20" as="geometry" />
        </mxCell>
        <mxCell id="121" value="2 days" style="strokeColor=#DEEDFF;movable=1;resizable=1;rotatable=1;deletable=1;editable=1;locked=0;connectable=1;" vertex="1" parent="1">
          <mxGeometry x="817.0000000000018" y="560.0000000000015" width="80.00000000000028" height="20" as="geometry" />
        </mxCell>
        <mxCell id="12" value="Duration" style="fillColor=#23445D;strokeColor=#FFFFFF;strokeWidth=2;fontColor=#FFFFFF;fontStyle=1;movable=1;resizable=1;rotatable=1;deletable=1;editable=1;locked=0;connectable=1;" vertex="1" parent="1">
          <mxGeometry x="817" y="300" width="80" height="37" as="geometry" />
        </mxCell>
        <mxCell id="66" value="21/02/2024" style="strokeColor=#10739e;fillColor=#b1ddf0;movable=1;resizable=1;rotatable=1;deletable=1;editable=1;locked=0;connectable=1;" vertex="1" parent="1">
          <mxGeometry x="737.0000000000018" y="339" width="80.00000000000028" height="20" as="geometry" />
        </mxCell>
        <mxCell id="72" value="23/02/2024" style="movable=1;resizable=1;rotatable=1;deletable=1;editable=1;locked=0;connectable=1;strokeColor=#e9f3ff;" vertex="1" parent="1">
          <mxGeometry x="737.0000000000023" y="359.9999999999998" width="80.00000000000028" height="20" as="geometry" />
        </mxCell>
        <mxCell id="77" value="23/02/2024" style="strokeColor=#DEEDFF;movable=1;resizable=1;rotatable=1;deletable=1;editable=1;locked=0;connectable=1;" vertex="1" parent="1">
          <mxGeometry x="737.0000000000023" y="379.9999999999998" width="80.00000000000028" height="20" as="geometry" />
        </mxCell>
        <mxCell id="82" value="12/03/2024" style="strokeColor=#DEEDFF;movable=1;resizable=1;rotatable=1;deletable=1;editable=1;locked=0;connectable=1;" vertex="1" parent="1">
          <mxGeometry x="737.0000000000018" y="400.0000000000001" width="80.00000000000028" height="20" as="geometry" />
        </mxCell>
        <mxCell id="87" value="20/03/2024" style="strokeColor=#DEEDFF;movable=1;resizable=1;rotatable=1;deletable=1;editable=1;locked=0;connectable=1;" vertex="1" parent="1">
          <mxGeometry x="737.0000000000018" y="420.0000000000001" width="80.00000000000028" height="20" as="geometry" />
        </mxCell>
        <mxCell id="92" value="12/03/2024" style="strokeColor=#DEEDFF;movable=1;resizable=1;rotatable=1;deletable=1;editable=1;locked=0;connectable=1;" vertex="1" parent="1">
          <mxGeometry x="737.0000000000018" y="441.00000000000034" width="80.00000000000028" height="20" as="geometry" />
        </mxCell>
        <mxCell id="97" value="" style="movable=1;resizable=1;rotatable=1;deletable=1;editable=1;locked=0;connectable=1;strokeColor=#ddedff;" vertex="1" parent="1">
          <mxGeometry x="737.0000000000027" y="460.0000000000007" width="80.00000000000028" height="20" as="geometry" />
        </mxCell>
        <mxCell id="102" value="1.06.12" style="strokeColor=#10739e;movable=1;resizable=1;rotatable=1;deletable=1;editable=1;locked=0;connectable=1;fillColor=#b1ddf0;" vertex="1" parent="1">
          <mxGeometry x="737.0000000000027" y="480.00000000000057" width="80.00000000000028" height="20" as="geometry" />
        </mxCell>
        <mxCell id="107" value="" style="movable=1;resizable=1;rotatable=1;deletable=1;editable=1;locked=0;connectable=1;strokeColor=#e9f3ff;" vertex="1" parent="1">
          <mxGeometry x="737.0000000000027" y="500.0000000000009" width="80.00000000000028" height="20" as="geometry" />
        </mxCell>
        <mxCell id="112" value="" style="strokeColor=#DEEDFF;movable=1;resizable=1;rotatable=1;deletable=1;editable=1;locked=0;connectable=1;" vertex="1" parent="1">
          <mxGeometry x="737.0000000000023" y="520.0000000000009" width="80.00000000000028" height="20" as="geometry" />
        </mxCell>
        <mxCell id="117" value="" style="strokeColor=#DEEDFF;movable=1;resizable=1;rotatable=1;deletable=1;editable=1;locked=0;connectable=1;" vertex="1" parent="1">
          <mxGeometry x="737.0000000000023" y="540.0000000000011" width="80.00000000000028" height="20" as="geometry" />
        </mxCell>
        <mxCell id="122" value="" style="strokeColor=#DEEDFF;movable=1;resizable=1;rotatable=1;deletable=1;editable=1;locked=0;connectable=1;" vertex="1" parent="1">
          <mxGeometry x="737.0000000000018" y="560.0000000000015" width="80.00000000000028" height="20" as="geometry" />
        </mxCell>
        <mxCell id="yenL0R5jrLWhSOvmW5b8-340" value="1" style="strokeColor=#10739e;fillColor=#b1ddf0;" vertex="1" parent="1">
          <mxGeometry x="17" y="339" width="40" height="20" as="geometry" />
        </mxCell>
        <mxCell id="yenL0R5jrLWhSOvmW5b8-341" value="Complete iteration 1 progress report" style="align=left;strokeColor=#10739e;fillColor=#b1ddf0;" vertex="1" parent="1">
          <mxGeometry x="57" y="339" width="320" height="20" as="geometry" />
        </mxCell>
        <mxCell id="yenL0R5jrLWhSOvmW5b8-342" value="2" style="strokeColor=#ddecff;" vertex="1" parent="1">
          <mxGeometry x="17.000000000000227" y="360" width="40" height="20" as="geometry" />
        </mxCell>
        <mxCell id="yenL0R5jrLWhSOvmW5b8-343" value="Complete stakeholder register" style="align=left;strokeColor=#ddecff;" vertex="1" parent="1">
          <mxGeometry x="57.00000000000023" y="360" width="319.9999999999998" height="20" as="geometry" />
        </mxCell>
        <mxCell id="yenL0R5jrLWhSOvmW5b8-344" value="3" style="strokeColor=#DEEDFF" vertex="1" parent="1">
          <mxGeometry x="17.000000000000227" y="379.9999999999998" width="40" height="20" as="geometry" />
        </mxCell>
        <mxCell id="yenL0R5jrLWhSOvmW5b8-345" value="Split into sub-groups" style="align=left;strokeColor=#DEEDFF" vertex="1" parent="1">
          <mxGeometry x="57.00000000000023" y="379.9999999999998" width="319.9999999999997" height="20.000000000000014" as="geometry" />
        </mxCell>
        <mxCell id="yenL0R5jrLWhSOvmW5b8-346" value="4" style="strokeColor=#DEEDFF" vertex="1" parent="1">
          <mxGeometry x="17" y="400.0000000000002" width="40" height="20" as="geometry" />
        </mxCell>
        <mxCell id="yenL0R5jrLWhSOvmW5b8-347" value="Complete personas (x3)" style="align=left;strokeColor=#DEEDFF" vertex="1" parent="1">
          <mxGeometry x="57" y="400.0000000000002" width="320" height="20" as="geometry" />
        </mxCell>
        <mxCell id="yenL0R5jrLWhSOvmW5b8-348" value="5" style="strokeColor=#DEEDFF" vertex="1" parent="1">
          <mxGeometry x="16.999999999999886" y="420.0000000000002" width="40" height="20" as="geometry" />
        </mxCell>
        <mxCell id="yenL0R5jrLWhSOvmW5b8-349" value="Complete persona reviews" style="align=left;strokeColor=#DEEDFF" vertex="1" parent="1">
          <mxGeometry x="56.999999999999886" y="420.0000000000002" width="320.0000000000001" height="20" as="geometry" />
        </mxCell>
        <mxCell id="yenL0R5jrLWhSOvmW5b8-350" value="6" style="strokeColor=#DEEDFF" vertex="1" parent="1">
          <mxGeometry x="16.999999999999886" y="441.00000000000045" width="40" height="20" as="geometry" />
        </mxCell>
        <mxCell id="yenL0R5jrLWhSOvmW5b8-351" value="Complete group meeting report" style="align=left;strokeColor=#DEEDFF" vertex="1" parent="1">
          <mxGeometry x="56.999999999999886" y="441.00000000000045" width="320.0000000000001" height="20" as="geometry" />
        </mxCell>
        <mxCell id="yenL0R5jrLWhSOvmW5b8-352" value="" style="strokeColor=#DEEDFF" vertex="1" parent="1">
          <mxGeometry x="17.000000000000682" y="460.0000000000007" width="40" height="20" as="geometry" />
        </mxCell>
        <mxCell id="yenL0R5jrLWhSOvmW5b8-353" value="" style="align=left;strokeColor=#DEEDFF" vertex="1" parent="1">
          <mxGeometry x="57.00000000000068" y="460.0000000000007" width="319.9999999999994" height="20" as="geometry" />
        </mxCell>
        <mxCell id="yenL0R5jrLWhSOvmW5b8-354" value="7" style="strokeColor=#10739e;fillColor=#b1ddf0;" vertex="1" parent="1">
          <mxGeometry x="17.000000000000682" y="480.00000000000045" width="40" height="20" as="geometry" />
        </mxCell>
        <mxCell id="yenL0R5jrLWhSOvmW5b8-355" value="Complete iteration 2 progress report" style="align=left;strokeColor=#10739e;fillColor=#b1ddf0;" vertex="1" parent="1">
          <mxGeometry x="57.00000000000068" y="480.00000000000045" width="319.9999999999994" height="20" as="geometry" />
        </mxCell>
        <mxCell id="yenL0R5jrLWhSOvmW5b8-356" value="8" style="strokeColor=#eaf3ff;" vertex="1" parent="1">
          <mxGeometry x="17.00000000000034" y="500.0000000000009" width="40" height="20" as="geometry" />
        </mxCell>
        <mxCell id="yenL0R5jrLWhSOvmW5b8-395" value="" style="edgeStyle=orthogonalEdgeStyle;rounded=0;orthogonalLoop=1;jettySize=auto;html=1;" edge="1" parent="1" source="yenL0R5jrLWhSOvmW5b8-357" target="yenL0R5jrLWhSOvmW5b8-360">
          <mxGeometry relative="1" as="geometry" />
        </mxCell>
        <mxCell id="yenL0R5jrLWhSOvmW5b8-357" value="Complete resources needs documentation" style="align=left;strokeColor=#eaf3ff;" vertex="1" parent="1">
          <mxGeometry x="57.00000000000034" y="500.0000000000009" width="319.99999999999966" height="20.00000000000003" as="geometry" />
        </mxCell>
        <mxCell id="yenL0R5jrLWhSOvmW5b8-358" value="9" style="strokeColor=#DEEDFF" vertex="1" parent="1">
          <mxGeometry x="17.000000000000227" y="520.0000000000009" width="40" height="20" as="geometry" />
        </mxCell>
        <mxCell id="yenL0R5jrLWhSOvmW5b8-396" value="" style="edgeStyle=orthogonalEdgeStyle;rounded=0;orthogonalLoop=1;jettySize=auto;html=1;" edge="1" parent="1" source="yenL0R5jrLWhSOvmW5b8-359" target="yenL0R5jrLWhSOvmW5b8-362">
          <mxGeometry relative="1" as="geometry" />
        </mxCell>
        <mxCell id="yenL0R5jrLWhSOvmW5b8-359" value="Complete gantt chart" style="align=left;strokeColor=#DEEDFF" vertex="1" parent="1">
          <mxGeometry x="57.00000000000023" y="520.0000000000009" width="319.9999999999997" height="20" as="geometry" />
        </mxCell>
        <mxCell id="yenL0R5jrLWhSOvmW5b8-360" value="10" style="strokeColor=#DEEDFF" vertex="1" parent="1">
          <mxGeometry x="17.000000000000227" y="540.0000000000014" width="40" height="20" as="geometry" />
        </mxCell>
        <mxCell id="yenL0R5jrLWhSOvmW5b8-361" value="Migrate task management from Trello to Github boards" style="align=left;strokeColor=#DEEDFF" vertex="1" parent="1">
          <mxGeometry x="57.00000000000023" y="540.0000000000014" width="319.9999999999997" height="20" as="geometry" />
        </mxCell>
        <mxCell id="yenL0R5jrLWhSOvmW5b8-362" value="11" style="strokeColor=#DEEDFF" vertex="1" parent="1">
          <mxGeometry x="17" y="560.0000000000016" width="40" height="20" as="geometry" />
        </mxCell>
        <mxCell id="yenL0R5jrLWhSOvmW5b8-363" value="Complete iteration 2 group meeting report" style="align=left;strokeColor=#DEEDFF" vertex="1" parent="1">
          <mxGeometry x="57" y="560.0000000000016" width="320" height="20" as="geometry" />
        </mxCell>
        <mxCell id="yenL0R5jrLWhSOvmW5b8-392" value="Task Name" style="fillColor=#23445D;strokeColor=#FFFFFF;strokeWidth=2;fontColor=#FFFFFF;fontStyle=1" vertex="1" parent="1">
          <mxGeometry x="56" y="300" width="320" height="38" as="geometry" />
        </mxCell>
        <mxCell id="yenL0R5jrLWhSOvmW5b8-393" value="" style="fillColor=#23445D;strokeColor=#FFFFFF;strokeWidth=2;fontColor=#FFFFFF;fontStyle=1" vertex="1" parent="1">
          <mxGeometry x="17" y="300" width="40" height="38" as="geometry" />
        </mxCell>
        <mxCell id="68" value="" style="strokeColor=#DEEDFF" vertex="1" parent="1">
          <mxGeometry x="897" y="340" width="20.000000000000004" height="239.9999999999832" as="geometry" />
        </mxCell>
        <mxCell id="194" value="" style="strokeColor=#DEEDFF" vertex="1" parent="1">
          <mxGeometry x="917" y="340.0000000000017" width="20.000000000000004" height="239.9999999999832" as="geometry" />
        </mxCell>
        <mxCell id="195" value="" style="strokeColor=#DEEDFF" vertex="1" parent="1">
          <mxGeometry x="937" y="340.0000000000017" width="20.000000000000004" height="239.9999999999832" as="geometry" />
        </mxCell>
        <mxCell id="196" value="" style="strokeColor=#DEEDFF" vertex="1" parent="1">
          <mxGeometry x="957" y="340.0000000000017" width="20.000000000000004" height="239.9999999999832" as="geometry" />
        </mxCell>
        <mxCell id="197" value="" style="strokeColor=#DEEDFF" vertex="1" parent="1">
          <mxGeometry x="977" y="340.0000000000017" width="20.000000000000004" height="239.9999999999832" as="geometry" />
        </mxCell>
        <mxCell id="198" value="" style="strokeColor=#DEEDFF;fillColor=#D4E1FF" vertex="1" parent="1">
          <mxGeometry x="997" y="340.0000000000034" width="20.000000000000004" height="239.9999999999832" as="geometry" />
        </mxCell>
        <mxCell id="199" value="" style="strokeColor=#DEEDFF;fillColor=#D4E1FF" vertex="1" parent="1">
          <mxGeometry x="1017" y="340.0000000000034" width="20.000000000000004" height="239.9999999999832" as="geometry" />
        </mxCell>
        <mxCell id="200" value="" style="strokeColor=#DEEDFF" vertex="1" parent="1">
          <mxGeometry x="1037" y="340.0000000000034" width="20.000000000000004" height="239.9999999999832" as="geometry" />
        </mxCell>
        <mxCell id="201" value="" style="strokeColor=#DEEDFF" vertex="1" parent="1">
          <mxGeometry x="1056.9999999999995" y="340.0000000000034" width="20.000000000000004" height="239.9999999999832" as="geometry" />
        </mxCell>
        <mxCell id="202" value="" style="strokeColor=#DEEDFF" vertex="1" parent="1">
          <mxGeometry x="1076.9999999999995" y="340.000000000005" width="20.000000000000004" height="239.9999999999832" as="geometry" />
        </mxCell>
        <mxCell id="203" value="" style="strokeColor=#DEEDFF" vertex="1" parent="1">
          <mxGeometry x="1096.9999999999995" y="340.000000000005" width="20.000000000000004" height="239.9999999999832" as="geometry" />
        </mxCell>
        <mxCell id="204" value="" style="strokeColor=#DEEDFF" vertex="1" parent="1">
          <mxGeometry x="1116.9999999999995" y="340.000000000005" width="20.000000000000004" height="239.9999999999832" as="geometry" />
        </mxCell>
        <mxCell id="205" value="" style="strokeColor=#DEEDFF;fillColor=#D4E1FF" vertex="1" parent="1">
          <mxGeometry x="1136.9999999999998" y="340.000000000005" width="20.000000000000004" height="239.9999999999832" as="geometry" />
        </mxCell>
        <mxCell id="206" value="" style="strokeColor=#DEEDFF;fillColor=#D4E1FF" vertex="1" parent="1">
          <mxGeometry x="1156.9999999999998" y="340.0000000000067" width="20.000000000000004" height="239.9999999999832" as="geometry" />
        </mxCell>
        <mxCell id="207" value="" style="strokeColor=#DEEDFF" vertex="1" parent="1">
          <mxGeometry x="1176.9999999999998" y="340.0000000000067" width="20.000000000000004" height="239.9999999999832" as="geometry" />
        </mxCell>
        <mxCell id="208" value="" style="strokeColor=#DEEDFF" vertex="1" parent="1">
          <mxGeometry x="1196.9999999999998" y="340.0000000000067" width="20.000000000000004" height="239.9999999999832" as="geometry" />
        </mxCell>
        <mxCell id="209" value="" style="strokeColor=#DEEDFF" vertex="1" parent="1">
          <mxGeometry x="1216.9999999999998" y="340" width="20.000000000000004" height="239.9999999999832" as="geometry" />
        </mxCell>
        <mxCell id="210" value="" style="strokeColor=#DEEDFF" vertex="1" parent="1">
          <mxGeometry x="1236.9999999999998" y="340.0000000000017" width="20.000000000000004" height="239.9999999999832" as="geometry" />
        </mxCell>
        <mxCell id="211" value="" style="strokeColor=#DEEDFF" vertex="1" parent="1">
          <mxGeometry x="1256.9999999999998" y="340.0000000000017" width="20.000000000000004" height="239.9999999999832" as="geometry" />
        </mxCell>
        <mxCell id="212" value="" style="strokeColor=#DEEDFF;fillColor=#D4E1FF" vertex="1" parent="1">
          <mxGeometry x="1276.9999999999998" y="340.0000000000017" width="20.000000000000004" height="239.9999999999832" as="geometry" />
        </mxCell>
        <mxCell id="213" value="" style="strokeColor=#DEEDFF;fillColor=#D4E1FF" vertex="1" parent="1">
          <mxGeometry x="1297" y="340.0000000000067" width="20.000000000000004" height="239.9999999999832" as="geometry" />
        </mxCell>
        <mxCell id="214" value="" style="strokeColor=#DEEDFF" vertex="1" parent="1">
          <mxGeometry x="1317" y="340.0000000000084" width="20.000000000000004" height="239.9999999999832" as="geometry" />
        </mxCell>
        <mxCell id="215" value="" style="strokeColor=#DEEDFF" vertex="1" parent="1">
          <mxGeometry x="1337" y="340.0000000000084" width="20.000000000000004" height="239.9999999999832" as="geometry" />
        </mxCell>
        <mxCell id="216" value="" style="strokeColor=#DEEDFF" vertex="1" parent="1">
          <mxGeometry x="1357" y="340.0000000000084" width="20.000000000000004" height="239.9999999999832" as="geometry" />
        </mxCell>
        <mxCell id="217" value="" style="strokeColor=#DEEDFF" vertex="1" parent="1">
          <mxGeometry x="1377" y="340.0000000000084" width="20.000000000000004" height="239.9999999999832" as="geometry" />
        </mxCell>
        <mxCell id="218" value="" style="strokeColor=#DEEDFF" vertex="1" parent="1">
          <mxGeometry x="1397" y="340.00000000001" width="20.000000000000004" height="239.9999999999832" as="geometry" />
        </mxCell>
        <mxCell id="219" value="" style="strokeColor=#DEEDFF;fillColor=#D4E1FF" vertex="1" parent="1">
          <mxGeometry x="1417" y="340.00000000001" width="20.000000000000004" height="239.9999999999832" as="geometry" />
        </mxCell>
        <mxCell id="220" value="" style="strokeColor=#DEEDFF;fillColor=#D4E1FF" vertex="1" parent="1">
          <mxGeometry x="1437" y="340.00000000001" width="20.000000000000004" height="239.9999999999832" as="geometry" />
        </mxCell>
        <mxCell id="221" value="" style="strokeColor=#DEEDFF" vertex="1" parent="1">
          <mxGeometry x="1457" y="340.00000000001" width="20.000000000000004" height="239.9999999999832" as="geometry" />
        </mxCell>
        <mxCell id="222" value="" style="strokeColor=#DEEDFF" vertex="1" parent="1">
          <mxGeometry x="1477" y="340.0000000000118" width="20.000000000000004" height="239.9999999999832" as="geometry" />
        </mxCell>
        <mxCell id="223" value="" style="strokeColor=#DEEDFF" vertex="1" parent="1">
          <mxGeometry x="1497" y="340.0000000000118" width="20.000000000000004" height="239.9999999999832" as="geometry" />
        </mxCell>
        <mxCell id="224" value="" style="strokeColor=#DEEDFF" vertex="1" parent="1">
          <mxGeometry x="1517" y="340.0000000000118" width="20.000000000000004" height="239.9999999999832" as="geometry" />
        </mxCell>
        <mxCell id="225" value="" style="strokeColor=#DEEDFF" vertex="1" parent="1">
          <mxGeometry x="1536.9999999999995" y="340.0000000000118" width="20.000000000000004" height="239.9999999999832" as="geometry" />
        </mxCell>
        <mxCell id="226" value="" style="strokeColor=#DEEDFF;fillColor=#D4E1FF" vertex="1" parent="1">
          <mxGeometry x="1557" y="340.0000000000134" width="20.000000000000004" height="239.9999999999832" as="geometry" />
        </mxCell>
        <mxCell id="227" value="" style="strokeColor=#DEEDFF;fillColor=#D4E1FF" vertex="1" parent="1">
          <mxGeometry x="1577" y="340.0000000000134" width="20.000000000000004" height="239.9999999999832" as="geometry" />
        </mxCell>
        <mxCell id="228" value="" style="strokeColor=#DEEDFF" vertex="1" parent="1">
          <mxGeometry x="1597" y="340.0000000000134" width="20.000000000000004" height="239.9999999999832" as="geometry" />
        </mxCell>
        <mxCell id="229" value="" style="strokeColor=#DEEDFF" vertex="1" parent="1">
          <mxGeometry x="1617" y="340.0000000000134" width="20.000000000000004" height="239.9999999999832" as="geometry" />
        </mxCell>
        <mxCell id="230" value="" style="strokeColor=#DEEDFF" vertex="1" parent="1">
          <mxGeometry x="1637" y="340.0000000000151" width="20.000000000000004" height="239.9999999999832" as="geometry" />
        </mxCell>
        <mxCell id="231" value="" style="strokeColor=#DEEDFF" vertex="1" parent="1">
          <mxGeometry x="1657" y="340.0000000000151" width="20.000000000000004" height="239.9999999999832" as="geometry" />
        </mxCell>
        <mxCell id="232" value="" style="strokeColor=#DEEDFF" vertex="1" parent="1">
          <mxGeometry x="1677" y="340.0000000000151" width="20.000000000000004" height="239.9999999999832" as="geometry" />
        </mxCell>
        <mxCell id="233" value="" style="strokeColor=#DEEDFF;fillColor=#D4E1FF" vertex="1" parent="1">
          <mxGeometry x="1697" y="340.0000000000084" width="20.000000000000004" height="239.9999999999832" as="geometry" />
        </mxCell>
        <mxCell id="234" value="" style="strokeColor=#DEEDFF;fillColor=#D4E1FF" vertex="1" parent="1">
          <mxGeometry x="1717" y="340.00000000001" width="20.000000000000004" height="239.9999999999832" as="geometry" />
        </mxCell>
        <mxCell id="fH8z7zXVUWC4mpvf0xH0-278" value="" style="rounded=0;whiteSpace=wrap;html=1;fillColor=#e51400;fontColor=#ffffff;strokeColor=#B20000;" vertex="1" parent="1">
          <mxGeometry x="937" y="360" width="60" height="21" as="geometry" />
        </mxCell>
        <mxCell id="fH8z7zXVUWC4mpvf0xH0-279" value="" style="rounded=0;whiteSpace=wrap;html=1;fillColor=#f0a30a;fontColor=#000000;strokeColor=#BD7000;" vertex="1" parent="1">
          <mxGeometry x="1037" y="379" width="20" height="21" as="geometry" />
        </mxCell>
        <mxCell id="fH8z7zXVUWC4mpvf0xH0-282" value="" style="verticalLabelPosition=bottom;verticalAlign=top;html=1;shape=mxgraph.basic.wave2;dy=0.3;fillColor=#e3c800;strokeColor=#B09500;fontColor=#000000;" vertex="1" parent="1">
          <mxGeometry x="1057" y="400" width="20" height="15" as="geometry" />
        </mxCell>
        <mxCell id="fH8z7zXVUWC4mpvf0xH0-284" value="" style="verticalLabelPosition=bottom;verticalAlign=top;html=1;shape=mxgraph.basic.wave2;dy=0.3;fillColor=#e3c800;strokeColor=#B09500;fontColor=#000000;" vertex="1" parent="1">
          <mxGeometry x="1077" y="400" width="20" height="15" as="geometry" />
        </mxCell>
        <mxCell id="fH8z7zXVUWC4mpvf0xH0-285" value="" style="verticalLabelPosition=bottom;verticalAlign=top;html=1;shape=mxgraph.basic.wave2;dy=0.3;fillColor=#e3c800;strokeColor=#B09500;fontColor=#000000;" vertex="1" parent="1">
          <mxGeometry x="1097" y="400" width="20" height="15" as="geometry" />
        </mxCell>
        <mxCell id="fH8z7zXVUWC4mpvf0xH0-286" value="" style="rounded=0;whiteSpace=wrap;html=1;fillColor=#e51400;fontColor=#ffffff;strokeColor=#B20000;" vertex="1" parent="1">
          <mxGeometry x="1177" y="440" width="40" height="21" as="geometry" />
        </mxCell>
        <mxCell id="fH8z7zXVUWC4mpvf0xH0-287" value="" style="rounded=0;whiteSpace=wrap;html=1;fillColor=#f0a30a;fontColor=#000000;strokeColor=#BD7000;" vertex="1" parent="1">
          <mxGeometry x="1117" y="419" width="20" height="21" as="geometry" />
        </mxCell>
        <mxCell id="fH8z7zXVUWC4mpvf0xH0-292" value="" style="rhombus;whiteSpace=wrap;html=1;fillColor=#76608a;fontColor=#ffffff;strokeColor=#432D57;" vertex="1" parent="1">
          <mxGeometry x="977" y="340" width="20" height="20" as="geometry" />
        </mxCell>
        <mxCell id="fH8z7zXVUWC4mpvf0xH0-293" value="" style="rhombus;whiteSpace=wrap;html=1;fillColor=#76608a;fontColor=#ffffff;strokeColor=#432D57;" vertex="1" parent="1">
          <mxGeometry x="997" y="340" width="20" height="20" as="geometry" />
        </mxCell>
        <mxCell id="fH8z7zXVUWC4mpvf0xH0-294" value="" style="rhombus;whiteSpace=wrap;html=1;fillColor=#76608a;fontColor=#ffffff;strokeColor=#432D57;" vertex="1" parent="1">
          <mxGeometry x="1017" y="340" width="20" height="20" as="geometry" />
        </mxCell>
        <mxCell id="fH8z7zXVUWC4mpvf0xH0-295" value="" style="rhombus;whiteSpace=wrap;html=1;fillColor=#76608a;fontColor=#ffffff;strokeColor=#432D57;" vertex="1" parent="1">
          <mxGeometry x="1037" y="340" width="20" height="20" as="geometry" />
        </mxCell>
        <mxCell id="fH8z7zXVUWC4mpvf0xH0-296" value="" style="rhombus;whiteSpace=wrap;html=1;fillColor=#76608a;fontColor=#ffffff;strokeColor=#432D57;" vertex="1" parent="1">
          <mxGeometry x="1057" y="340" width="20" height="20" as="geometry" />
        </mxCell>
        <mxCell id="fH8z7zXVUWC4mpvf0xH0-297" value="" style="rhombus;whiteSpace=wrap;html=1;fillColor=#76608a;fontColor=#ffffff;strokeColor=#432D57;" vertex="1" parent="1">
          <mxGeometry x="1077" y="340" width="20" height="20" as="geometry" />
        </mxCell>
        <mxCell id="fH8z7zXVUWC4mpvf0xH0-298" value="" style="rhombus;whiteSpace=wrap;html=1;fillColor=#76608a;fontColor=#ffffff;strokeColor=#432D57;" vertex="1" parent="1">
          <mxGeometry x="1097" y="339" width="20" height="20" as="geometry" />
        </mxCell>
        <mxCell id="fH8z7zXVUWC4mpvf0xH0-299" value="" style="rhombus;whiteSpace=wrap;html=1;fillColor=#76608a;fontColor=#ffffff;strokeColor=#432D57;" vertex="1" parent="1">
          <mxGeometry x="1117" y="340" width="20" height="20" as="geometry" />
        </mxCell>
        <mxCell id="fH8z7zXVUWC4mpvf0xH0-302" value="" style="rhombus;whiteSpace=wrap;html=1;fillColor=#76608a;fontColor=#ffffff;strokeColor=#432D57;" vertex="1" parent="1">
          <mxGeometry x="1137" y="340" width="20" height="20" as="geometry" />
        </mxCell>
        <mxCell id="fH8z7zXVUWC4mpvf0xH0-303" value="" style="rhombus;whiteSpace=wrap;html=1;fillColor=#76608a;fontColor=#ffffff;strokeColor=#432D57;" vertex="1" parent="1">
          <mxGeometry x="1157" y="340" width="20" height="20" as="geometry" />
        </mxCell>
        <mxCell id="fH8z7zXVUWC4mpvf0xH0-304" value="" style="rhombus;whiteSpace=wrap;html=1;fillColor=#76608a;fontColor=#ffffff;strokeColor=#432D57;" vertex="1" parent="1">
          <mxGeometry x="1177" y="340" width="20" height="20" as="geometry" />
        </mxCell>
        <mxCell id="fH8z7zXVUWC4mpvf0xH0-305" value="" style="rhombus;whiteSpace=wrap;html=1;fillColor=#76608a;fontColor=#ffffff;strokeColor=#432D57;" vertex="1" parent="1">
          <mxGeometry x="1197" y="340" width="20" height="20" as="geometry" />
        </mxCell>
        <mxCell id="fH8z7zXVUWC4mpvf0xH0-313" value="" style="rhombus;whiteSpace=wrap;html=1;fillColor=#76608a;fontColor=#ffffff;strokeColor=#432D57;" vertex="1" parent="1">
          <mxGeometry x="937" y="340" width="20" height="20" as="geometry" />
        </mxCell>
        <mxCell id="fH8z7zXVUWC4mpvf0xH0-314" value="" style="rhombus;whiteSpace=wrap;html=1;fillColor=#76608a;fontColor=#ffffff;strokeColor=#432D57;" vertex="1" parent="1">
          <mxGeometry x="957" y="340" width="20" height="20" as="geometry" />
        </mxCell>
        <mxCell id="fH8z7zXVUWC4mpvf0xH0-319" value="" style="rhombus;whiteSpace=wrap;html=1;fillColor=#76608a;fontColor=#ffffff;strokeColor=#432D57;" vertex="1" parent="1">
          <mxGeometry x="1357" y="480" width="20" height="20" as="geometry" />
        </mxCell>
        <mxCell id="fH8z7zXVUWC4mpvf0xH0-320" value="" style="rhombus;whiteSpace=wrap;html=1;fillColor=#76608a;fontColor=#ffffff;strokeColor=#432D57;" vertex="1" parent="1">
          <mxGeometry x="1377" y="480" width="20" height="20" as="geometry" />
        </mxCell>
        <mxCell id="fH8z7zXVUWC4mpvf0xH0-321" value="" style="rhombus;whiteSpace=wrap;html=1;fillColor=#76608a;fontColor=#ffffff;strokeColor=#432D57;" vertex="1" parent="1">
          <mxGeometry x="1397" y="480" width="20" height="20" as="geometry" />
        </mxCell>
        <mxCell id="fH8z7zXVUWC4mpvf0xH0-322" value="" style="rhombus;whiteSpace=wrap;html=1;fillColor=#76608a;fontColor=#ffffff;strokeColor=#432D57;" vertex="1" parent="1">
          <mxGeometry x="1417" y="480" width="20" height="20" as="geometry" />
        </mxCell>
        <mxCell id="fH8z7zXVUWC4mpvf0xH0-323" value="" style="rhombus;whiteSpace=wrap;html=1;fillColor=#76608a;fontColor=#ffffff;strokeColor=#432D57;" vertex="1" parent="1">
          <mxGeometry x="1437" y="480" width="20" height="20" as="geometry" />
        </mxCell>
        <mxCell id="fH8z7zXVUWC4mpvf0xH0-324" value="" style="rhombus;whiteSpace=wrap;html=1;fillColor=#76608a;fontColor=#ffffff;strokeColor=#432D57;" vertex="1" parent="1">
          <mxGeometry x="1457" y="480" width="20" height="20" as="geometry" />
        </mxCell>
        <mxCell id="fH8z7zXVUWC4mpvf0xH0-325" value="" style="rhombus;whiteSpace=wrap;html=1;fillColor=#76608a;fontColor=#ffffff;strokeColor=#432D57;" vertex="1" parent="1">
          <mxGeometry x="1477" y="479" width="20" height="20" as="geometry" />
        </mxCell>
        <mxCell id="fH8z7zXVUWC4mpvf0xH0-326" value="" style="rhombus;whiteSpace=wrap;html=1;fillColor=#76608a;fontColor=#ffffff;strokeColor=#432D57;" vertex="1" parent="1">
          <mxGeometry x="1497" y="480" width="20" height="20" as="geometry" />
        </mxCell>
        <mxCell id="fH8z7zXVUWC4mpvf0xH0-327" value="" style="rhombus;whiteSpace=wrap;html=1;fillColor=#76608a;fontColor=#ffffff;strokeColor=#432D57;" vertex="1" parent="1">
          <mxGeometry x="1517" y="480" width="20" height="20" as="geometry" />
        </mxCell>
        <mxCell id="fH8z7zXVUWC4mpvf0xH0-328" value="" style="rhombus;whiteSpace=wrap;html=1;fillColor=#76608a;fontColor=#ffffff;strokeColor=#432D57;" vertex="1" parent="1">
          <mxGeometry x="1537" y="480" width="20" height="20" as="geometry" />
        </mxCell>
        <mxCell id="fH8z7zXVUWC4mpvf0xH0-329" value="" style="rhombus;whiteSpace=wrap;html=1;fillColor=#76608a;fontColor=#ffffff;strokeColor=#432D57;" vertex="1" parent="1">
          <mxGeometry x="1557" y="480" width="20" height="20" as="geometry" />
        </mxCell>
        <mxCell id="fH8z7zXVUWC4mpvf0xH0-330" value="" style="rhombus;whiteSpace=wrap;html=1;fillColor=#76608a;fontColor=#ffffff;strokeColor=#432D57;" vertex="1" parent="1">
          <mxGeometry x="1577" y="480" width="20" height="20" as="geometry" />
        </mxCell>
        <mxCell id="fH8z7zXVUWC4mpvf0xH0-331" value="" style="rhombus;whiteSpace=wrap;html=1;fillColor=#76608a;fontColor=#ffffff;strokeColor=#432D57;" vertex="1" parent="1">
          <mxGeometry x="1317" y="480" width="20" height="20" as="geometry" />
        </mxCell>
        <mxCell id="fH8z7zXVUWC4mpvf0xH0-332" value="" style="rhombus;whiteSpace=wrap;html=1;fillColor=#76608a;fontColor=#ffffff;strokeColor=#432D57;" vertex="1" parent="1">
          <mxGeometry x="1337" y="480" width="20" height="20" as="geometry" />
        </mxCell>
        <mxCell id="fH8z7zXVUWC4mpvf0xH0-333" value="" style="rounded=0;whiteSpace=wrap;html=1;fillColor=#e51400;fontColor=#ffffff;strokeColor=#B20000;" vertex="1" parent="1">
          <mxGeometry x="1317" y="500" width="60" height="21" as="geometry" />
        </mxCell>
        <mxCell id="fH8z7zXVUWC4mpvf0xH0-334" value="" style="rounded=0;whiteSpace=wrap;html=1;fillColor=#647687;fontColor=#ffffff;strokeColor=#314354;" vertex="1" parent="1">
          <mxGeometry x="1457" y="520" width="60" height="20" as="geometry" />
        </mxCell>
        <mxCell id="fH8z7zXVUWC4mpvf0xH0-336" value="" style="verticalLabelPosition=bottom;verticalAlign=top;html=1;shape=mxgraph.basic.wave2;dy=0.3;fillColor=#e3c800;strokeColor=#B09500;fontColor=#000000;" vertex="1" parent="1">
          <mxGeometry x="1517" y="542.5" width="20" height="15" as="geometry" />
        </mxCell>
        <mxCell id="fH8z7zXVUWC4mpvf0xH0-337" value="" style="rounded=0;whiteSpace=wrap;html=1;fillColor=#e51400;fontColor=#ffffff;strokeColor=#B20000;" vertex="1" parent="1">
          <mxGeometry x="1597" y="557.5" width="60" height="21" as="geometry" />
        </mxCell>
        <mxCell id="fH8z7zXVUWC4mpvf0xH0-338" value="" style="rhombus;whiteSpace=wrap;html=1;fillColor=#76608a;fontColor=#ffffff;strokeColor=#432D57;" vertex="1" parent="1">
          <mxGeometry x="1597" y="480" width="20" height="20" as="geometry" />
        </mxCell>
        <mxCell id="fH8z7zXVUWC4mpvf0xH0-339" value="" style="rhombus;whiteSpace=wrap;html=1;fillColor=#76608a;fontColor=#ffffff;strokeColor=#432D57;" vertex="1" parent="1">
          <mxGeometry x="1617" y="480" width="20" height="20" as="geometry" />
        </mxCell>
        <mxCell id="fH8z7zXVUWC4mpvf0xH0-340" value="" style="rhombus;whiteSpace=wrap;html=1;fillColor=#76608a;fontColor=#ffffff;strokeColor=#432D57;" vertex="1" parent="1">
          <mxGeometry x="1637" y="480" width="20" height="20" as="geometry" />
        </mxCell>
      </root>
    </mxGraphModel>
  </diagram>
</mxfile>
